:SAMPLES-PER-SECOND 30
:FULLY-SPECIFIED
:DEGREES
392
root  2.98154 39.7482 16.7977 178.992 -40.9817 174.478
RightUpLeg  -18.1216 -11.4218 -5.07217
RightLeg  20.6497 -3.58603 -1.79473
RightFoot  1.89028 -0.09919 0.97144
RightToes  0.00048216 0.542163 -0.142577
Spine  7.32891 -1.67089 -2.71991
Spine1  12.0469 -1.86376 -0.798815
HEad  2.11507 15.3079 -7.94389
LeftShoulder1  9.54834 -14.2187 -47.0153
LeftArm  -15.9332 13.0376 -23.923
LeftForeArm  35.9554 -75.5329 -46.4915
LeftHand  -0.25398 0.0180481 5.50724
RightShoulder  6.06839 10.5416 37.1899
RightArm  -18.422 -30.7083 25.2027
RightForeArm  64.5709 74.8828 125.872
RightHand  1.39105 -16.3209 -15.3335
LeftUpLeg  8.93413 3.75615 -8.51761
LeftLeg  8.82115 17.626 -4.31322
LeftFoot  -13.9048 0.138605 2.47012
LeftToes  1.06248e-005 4.65855e-005 -8.185e-006
393
root  1.89216 39.5748 15.8882 179.362 -42.7197 173.7
RightUpLeg  -19.4011 -13.9581 -3.30775
RightLeg  12.8765 -3.59979 0.1924
RightFoot  4.86581 -0.256041 2.03473
RightToes  0.00048216 0.542163 -0.142577
Spine  7.5588 -1.62182 -3.03032
Spine1  11.972 -1.69552 -1.19575
HEad  2.98618 13.5537 -6.74364
LeftShoulder1  9.56239 -14.1503 -47.2721
LeftArm  -17.1604 13.6715 -22.7605
LeftForeArm  31.8633 -74.7288 -43.5596
LeftHand  -0.25398 0.0180481 5.50724
RightShoulder  6.15179 10.5867 37.6286
RightArm  -18.6843 -30.011 26.9453
RightForeArm  67.8711 74.2952 128.862
RightHand  1.4657 -15.5677 -17.2402
LeftUpLeg  12.5354 3.45558 -9.16432
LeftLeg  6.96345 16.2095 -4.7715
LeftFoot  -14.6821 0.141199 1.82083
LeftToes  1.06248e-005 4.65855e-005 -8.185e-006
394
root  0.734493 39.3193 14.9136 179.885 -44.3679 172.96
RightUpLeg  -19.3362 -9.9388 -4.3558
RightLeg  4.51853 -12.2544 3.84579
RightFoot  4.82781 -0.516458 3.89767
RightToes  0.00048216 0.542163 -0.142577
Spine  7.32357 -1.52711 -3.03695
Spine1  12.2224 -1.47816 -1.47226
HEad  3.50499 11.6874 -5.90615
LeftShoulder1  9.56733 -14.0993 -47.4365
LeftArm  -17.9636 14.6015 -21.4543
LeftForeArm  28.2995 -73.9983 -41.3016
LeftHand  -0.25398 0.0180481 5.50724
RightShoulder  6.1825 10.5992 37.8011
RightArm  -18.7151 -29.3397 28.8526
RightForeArm  69.8602 73.7344 131.294
RightHand  1.42427 -13.7666 -20.172
LeftUpLeg  15.9485 3.81516 -9.30158
LeftLeg  5.67228 13.7873 -5.29773
LeftFoot  -15.7896 0.137619 1.11372
LeftToes  1.06248e-005 4.65855e-005 -8.185e-006
395
root  -0.497008 38.9505 13.8626 -179.262 -46.3538 171.745
RightUpLeg  -18.983 -7.87719 -5.11609
RightLeg  -2.24734 -18.8098 7.04638
RightFoot  2.69454 -0.785261 6.55258
RightToes  0.00048216 0.542163 -0.142577
Spine  6.82711 -1.46486 -3.60919
Spine1  12.8792 -1.46869 -1.27341
HEad  3.59355 9.79672 -5.51876
LeftShoulder1  9.55203 -14.1072 -47.3379
LeftArm  -18.7442 15.826 -20.7028
LeftForeArm  25.7301 -73.4564 -39.8164
LeftHand  -0.25398 0.0180481 5.50724
RightShoulder  6.21464 10.64 37.8982
RightArm  -18.3301 -28.3701 30.2312
RightForeArm  69.8499 73.5415 132.005
RightHand  1.33409 -12.2675 -22.7588
LeftUpLeg  18.7933 4.21932 -9.39885
LeftLeg  6.0504 10.931 -5.58608
LeftFoot  -17.4847 0.13335 0.529131
LeftToes  1.06248e-005 4.65855e-005 -8.185e-006
396
root  -1.78611 38.5591 12.7459 -178.922 -48.6464 170.794
RightUpLeg  -18.5607 -7.96773 -4.76581
RightLeg  -4.28914 -20.8907 8.16974
RightFoot  0.414007 -0.792686 7.63902
RightToes  0.00048216 0.542163 -0.142577
Spine  6.82197 -1.39781 -4.01294
Spine1  13.5638 -1.5964 -0.747174
HEad  3.36366 7.86431 -5.4536
LeftShoulder1  9.52024 -14.1573 -47.0405
LeftArm  -19.6252 17.2483 -20.5676
LeftForeArm  24.7399 -73.2791 -39.4042
LeftHand  -0.25398 0.0180481 5.50724
RightShoulder  6.23388 10.6837 37.8983
RightArm  -17.4806 -27.2362 30.8951
RightForeArm  68.3874 73.7999 130.9
RightHand  1.47071 -12.6762 -23.629
LeftUpLeg  21.5167 4.94438 -8.72668
LeftLeg  7.88371 7.9542 -5.61146
LeftFoot  -18.8563 0.126079 0.193006
LeftToes  1.06248e-005 4.65855e-005 -8.185e-006
397
root  -3.13986 38.2803 11.6075 179.842 -50.8677 171.582
RightUpLeg  -18.1094 -7.37452 -3.51265
RightLeg  -1.94296 -21.3887 7.63238
RightFoot  0.582157 -0.389645 3.88167
RightToes  0.00048216 0.542163 -0.142577
Spine  7.63783 -1.24711 -2.14713
Spine1  13.8948 -1.39922 -0.834297
HEad  3.01881 5.65152 -5.48105
LeftShoulder1  9.50031 -14.1954 -46.8364
LeftArm  -20.0371 18.6758 -20.4277
LeftForeArm  25.1028 -73.4188 -39.8358
LeftHand  -0.25398 0.0180481 5.50724
RightShoulder  6.19869 10.6425 37.7819
RightArm  -16.2562 -26.784 30.9369
RightForeArm  66.24 74.159 129.273
RightHand  1.67951 -13.7039 -23.5868
LeftUpLeg  24.6705 7.06872 -5.7465
LeftLeg  9.95138 3.45397 -5.5663
LeftFoot  -19.0269 0.103472 -0.141244
LeftToes  1.06248e-005 4.65855e-005 -8.185e-006
398
root  -4.60597 38.1051 10.4571 177.476 -52.6555 174.027
RightUpLeg  -19.2188 -8.48743 -0.793884
RightLeg  4.89409 -19.4521 5.13473
RightFoot  2.8833 0.516746 -3.88932
RightToes  0.00048216 0.542163 -0.142577
Spine  8.68241 -1.11641 2.34074
Spine1  13.6944 -0.593407 -2.14264
HEad  2.7125 3.28706 -5.59728
LeftShoulder1  9.51754 -14.1807 -46.9631
LeftArm  -19.6878 20.0646 -19.8874
LeftForeArm  25.7127 -73.577 -40.2865
LeftHand  -0.25398 0.0180481 5.50724
RightShoulder  6.16574 10.5503 37.8333
RightArm  -14.7165 -27.317 30.3216
RightForeArm  63.42 74.4758 127.643
RightHand  1.43125 -12.2328 -24.5012
LeftUpLeg  27.6969 12.363 0.366988
LeftLeg  12.9109 -5.2794 -5.39117
LeftFoot  -18.2236 7.56639e-005 -1.77525
LeftToes  1.06248e-005 4.65855e-005 -8.185e-006
399
root  -6.12175 38.001 9.32959 175.441 -53.9553 176.708
RightUpLeg  -22.2776 -15.7431 4.25068
RightLeg  13.8527 -11.351 0.765659
RightFoot  4.94568 1.55191 -10.6458
RightToes  0.00048216 0.542163 -0.142577
Spine  9.50439 -1.16388 7.48701
Spine1  13.137 0.418387 -4.02848
HEad  2.46661 1.56779 -5.96222
LeftShoulder1  9.55492 -14.1032 -47.3634
LeftArm  -19.3168 21.6227 -19.2252
LeftForeArm  25.9645 -73.6335 -40.4427
LeftHand  -0.25398 0.0180481 5.50724
RightShoulder  6.21967 10.5558 38.1855
RightArm  -12.7949 -27.6547 29.2122
RightForeArm  58.7596 75.1001 124.14
RightHand  0.737588 -8.70052 -26.2291
LeftUpLeg  28.2983 17.5475 6.48707
LeftLeg  18.9101 -13.9938 -5.36898
LeftFoot  -15.3701 -0.0950884 -5.69203
LeftToes  1.06248e-005 4.65855e-005 -8.185e-006
